<svg xmlns="http://www.w3.org/2000/svg" viewBox="0 0 64 64" width="64" height="64">
  <rect width="64" height="64" rx="8" fill="#FF5C28"/>
  <rect x="2" y="2" width="60" height="60" rx="6" fill="none" stroke="#1A1A1A" stroke-width="3"/>
  <path d="M20 26 C16 26 12 30 12 36 C12 42 16 44 18 44 C20 44 22 40 24 40 L40 40 C42 40 44 44 46 44 C48 44 52 42 52 36 C52 30 48 26 44 26 Z" fill="#1A1A1A"/>
  <circle cx="22" cy="35" r="2.5" fill="#FFF8F0"/>
  <circle cx="42" cy="33" r="2" fill="#FFF8F0"/>
  <circle cx="46" cy="37" r="2" fill="#FFF8F0"/>
  <rect x="38" y="35" width="8" height="2" rx="1" fill="#FFF8F0" transform="rotate(90 42 36)"/>
</svg>